<svg xmlns="http://www.w3.org/2000/svg" width="820" height="500" viewBox="0 0 820 500">
<rect width="100%" height="100%" fill="white"/>
<text x="410.0" y="24" text-anchor="middle" font-family="sans-serif" font-size="17">572-Point NRII Operating-Envelope Evidence Map (Binned)</text>
<line x1="85" y1="415" x2="775" y2="415" stroke="black"/>
<line x1="85" y1="45" x2="85" y2="415" stroke="black"/>
<line x1="85" y1="240.50" x2="775" y2="240.50" stroke="black" stroke-dasharray="4 4"/>
<line x1="665.41" y1="45" x2="665.41" y2="415" stroke="black" stroke-dasharray="4 4"/>
<line x1="103.37" y1="280.39" x2="103.37" y2="242.49" stroke="black" stroke-width="1"/>
<circle cx="103.37" cy="250.87" r="3" fill="white" stroke="black"/>
<line x1="180.23" y1="277.17" x2="180.23" y2="277.17" stroke="black" stroke-width="1"/>
<circle cx="180.23" cy="277.17" r="3" fill="white" stroke="black"/>
<line x1="218.65" y1="282.72" x2="218.65" y2="204.26" stroke="black" stroke-width="1"/>
<circle cx="218.65" cy="268.06" r="3" fill="white" stroke="black"/>
<line x1="257.08" y1="282.46" x2="257.08" y2="159.32" stroke="black" stroke-width="1"/>
<circle cx="257.08" cy="207.70" r="3" fill="white" stroke="black"/>
<line x1="295.51" y1="292.38" x2="295.51" y2="88.60" stroke="black" stroke-width="1"/>
<circle cx="295.51" cy="206.61" r="3" fill="white" stroke="black"/>
<line x1="333.93" y1="293.42" x2="333.93" y2="158.44" stroke="black" stroke-width="1"/>
<circle cx="333.93" cy="228.88" r="3" fill="white" stroke="black"/>
<line x1="372.36" y1="301.86" x2="372.36" y2="163.81" stroke="black" stroke-width="1"/>
<circle cx="372.36" cy="214.45" r="3" fill="white" stroke="black"/>
<line x1="410.79" y1="311.88" x2="410.79" y2="166.32" stroke="black" stroke-width="1"/>
<circle cx="410.79" cy="218.02" r="3" fill="white" stroke="black"/>
<line x1="449.21" y1="289.20" x2="449.21" y2="170.20" stroke="black" stroke-width="1"/>
<circle cx="449.21" cy="208.79" r="3" fill="white" stroke="black"/>
<line x1="487.64" y1="294.84" x2="487.64" y2="175.46" stroke="black" stroke-width="1"/>
<circle cx="487.64" cy="215.13" r="3" fill="white" stroke="black"/>
<line x1="526.07" y1="307.49" x2="526.07" y2="177.26" stroke="black" stroke-width="1"/>
<circle cx="526.07" cy="226.86" r="3" fill="white" stroke="black"/>
<line x1="564.49" y1="321.96" x2="564.49" y2="199.20" stroke="black" stroke-width="1"/>
<circle cx="564.49" cy="256.12" r="3" fill="white" stroke="black"/>
<line x1="602.92" y1="367.64" x2="602.92" y2="68.66" stroke="black" stroke-width="1"/>
<circle cx="602.92" cy="292.72" r="3" fill="white" stroke="black"/>
<line x1="641.35" y1="402.25" x2="641.35" y2="54.06" stroke="black" stroke-width="1"/>
<circle cx="641.35" cy="71.03" r="3" fill="white" stroke="black"/>
<line x1="679.77" y1="405.94" x2="679.77" y2="178.41" stroke="black" stroke-width="1"/>
<circle cx="679.77" cy="210.80" r="3" fill="white" stroke="black"/>
<line x1="718.20" y1="402.90" x2="718.20" y2="402.10" stroke="black" stroke-width="1"/>
<circle cx="718.20" cy="402.50" r="3" fill="white" stroke="black"/>
<line x1="756.63" y1="402.98" x2="756.63" y2="402.98" stroke="black" stroke-width="1"/>
<circle cx="756.63" cy="402.98" r="3" fill="white" stroke="black"/>
<polyline points="103.37,250.87 180.23,277.17 218.65,268.06 257.08,207.70 295.51,206.61 333.93,228.88 372.36,214.45 410.79,218.02 449.21,208.79 487.64,215.13 526.07,226.86 564.49,256.12 602.92,292.72 641.35,71.03 679.77,210.80 718.20,402.50 756.63,402.98" fill="none" stroke="black" stroke-width="1.6"/>
<line x1="114.26" y1="415" x2="114.26" y2="420" stroke="black"/>
<text x="114.26" y="435" text-anchor="middle" font-family="sans-serif" font-size="11">0.001</text>
<line x1="297.98" y1="415" x2="297.98" y2="420" stroke="black"/>
<text x="297.98" y="435" text-anchor="middle" font-family="sans-serif" font-size="11">0.01</text>
<line x1="481.70" y1="415" x2="481.70" y2="420" stroke="black"/>
<text x="481.70" y="435" text-anchor="middle" font-family="sans-serif" font-size="11">0.1</text>
<line x1="665.41" y1="415" x2="665.41" y2="420" stroke="black"/>
<text x="665.41" y="435" text-anchor="middle" font-family="sans-serif" font-size="11">1</text>
<line x1="753.07" y1="415" x2="753.07" y2="420" stroke="black"/>
<text x="753.07" y="435" text-anchor="middle" font-family="sans-serif" font-size="11">3</text>
<line x1="80" y1="331.10" x2="85" y2="331.10" stroke="black"/>
<text x="76" y="335.10" text-anchor="end" font-family="sans-serif" font-size="11">0.1</text>
<line x1="80" y1="240.50" x2="85" y2="240.50" stroke="black"/>
<text x="76" y="244.50" text-anchor="end" font-family="sans-serif" font-size="11">1</text>
<line x1="80" y1="149.91" x2="85" y2="149.91" stroke="black"/>
<text x="76" y="153.91" text-anchor="end" font-family="sans-serif" font-size="11">10</text>
<line x1="80" y1="59.32" x2="85" y2="59.32" stroke="black"/>
<text x="76" y="63.32" text-anchor="end" font-family="sans-serif" font-size="11">100</text>
<text x="430.0" y="485" text-anchor="middle" font-family="sans-serif" font-size="13">Measured q_eff</text>
<text x="20" y="230.0" text-anchor="middle" transform="rotate(-90 20 230.0)" font-family="sans-serif" font-size="13">Speed ratio = Newton-family / NRII</text>
<text x="95" y="60" font-family="sans-serif" font-size="11">Vertical bars: min-max in each q_eff bin; circles: median</text>
</svg>