<svg xmlns="http://www.w3.org/2000/svg" width="820" height="500" viewBox="0 0 820 500">
<rect width="100%" height="100%" fill="white"/>
<text x="410.0" y="24" text-anchor="middle" font-family="sans-serif" font-size="17">Equal Sparsity Degree, Different Topology</text>
<line x1="85" y1="415" x2="775" y2="415" stroke="black"/>
<line x1="85" y1="45" x2="85" y2="415" stroke="black"/>
<line x1="85" y1="378.49" x2="775" y2="378.49" stroke="black" stroke-dasharray="4 4" stroke-width="1"/>
<polyline points="134.39,142.25 185.31,216.55 237.27,254.06 294.84,277.37 352.15,301.43 421.24,340.05 483.19,339.85 546.12,353.38 616.50,371.92 680.22,378.58 749.44,389.48" fill="none" stroke="black" stroke-width="1.5"/>
<polyline points="110.56,78.24 120.22,106.70 131.95,231.95 142.30,172.57 152.65,196.53 163.00,199.92 176.80,177.49 187.65,182.17 198.49,180.92 213.03,204.23 224.25,210.19" fill="none" stroke="black" stroke-width="1.75" stroke-dasharray="8 5"/>
<polyline points="123.49,70.52 153.37,115.36 179.60,154.37 208.71,175.54 236.12,203.51 263.17,201.01 290.38,209.85 317.45,234.45 344.52,235.28 371.55,246.27 398.64,267.72" fill="none" stroke="black" stroke-width="2.0" stroke-dasharray="2 4"/>
<polyline points="125.64,81.85 175.54,134.35 212.86,161.34 263.99,194.00 313.87,222.49 358.17,246.67 404.02,272.72 449.12,293.91 494.56,297.38 540.00,305.81 586.88,335.51" fill="none" stroke="black" stroke-width="1.5" stroke-dasharray="12 4 2 4"/>
<line x1="100.89" y1="415" x2="100.89" y2="420" stroke="black"/><text x="100.89" y="435" text-anchor="middle" font-family="sans-serif" font-size="11">0</text>
<line x1="273.42" y1="415" x2="273.42" y2="420" stroke="black"/><text x="273.42" y="435" text-anchor="middle" font-family="sans-serif" font-size="11">0.1</text>
<line x1="445.94" y1="415" x2="445.94" y2="420" stroke="black"/><text x="445.94" y="435" text-anchor="middle" font-family="sans-serif" font-size="11">0.2</text>
<line x1="618.47" y1="415" x2="618.47" y2="420" stroke="black"/><text x="618.47" y="435" text-anchor="middle" font-family="sans-serif" font-size="11">0.3</text>
<line x1="80" y1="378.49" x2="85" y2="378.49" stroke="black"/><text x="76" y="382.49" text-anchor="end" font-family="sans-serif" font-size="11">1</text>
<line x1="80" y1="334.81" x2="85" y2="334.81" stroke="black"/><text x="76" y="338.81" text-anchor="end" font-family="sans-serif" font-size="11">2</text>
<line x1="80" y1="247.46" x2="85" y2="247.46" stroke="black"/><text x="76" y="251.46" text-anchor="end" font-family="sans-serif" font-size="11">4</text>
<line x1="80" y1="160.10" x2="85" y2="160.10" stroke="black"/><text x="76" y="164.10" text-anchor="end" font-family="sans-serif" font-size="11">6</text>
<line x1="80" y1="72.74" x2="85" y2="72.74" stroke="black"/><text x="76" y="76.74" text-anchor="end" font-family="sans-serif" font-size="11">8</text>
<line x1="595" y1="59" x2="623" y2="59" stroke="black" stroke-width="1.5"/><text x="631" y="63" font-family="sans-serif" font-size="11">block_local8</text>
<line x1="595" y1="77" x2="623" y2="77" stroke="black" stroke-width="1.5" stroke-dasharray="8 5"/><text x="631" y="81" font-family="sans-serif" font-size="11">local_ring8</text>
<line x1="595" y1="95" x2="623" y2="95" stroke="black" stroke-width="1.5" stroke-dasharray="2 4"/><text x="631" y="99" font-family="sans-serif" font-size="11">longrange_ring8</text>
<line x1="595" y1="113" x2="623" y2="113" stroke="black" stroke-width="1.5" stroke-dasharray="12 4 2 4"/><text x="631" y="117" font-family="sans-serif" font-size="11">moore2d8</text>
<text x="430.0" y="485" text-anchor="middle" font-family="sans-serif" font-size="13">Measured q_eff</text>
<text x="20" y="230.0" text-anchor="middle" transform="rotate(-90 20 230.0)" font-family="sans-serif" font-size="13">Speedup = Newton-GMRES / NRII</text>
</svg>